<svg xmlns="http://www.w3.org/2000/svg" width="512" height="512" xmlns:v="https://vecta.io/nano"><defs><linearGradient id="A" gradientUnits="userSpaceOnUse" x1="199.694" y1="32" x2="199.694" y2="363.851"><stop offset="0" stop-color="rgb(19.607843%,49.411765%,74.117647%)"/><stop offset="1" stop-color="rgb(8.235294%,39.607843%,65.490196%)"/></linearGradient><linearGradient id="B" gradientUnits="userSpaceOnUse" x1="312.304" y1="148.148" x2="312.304" y2="480"><stop offset="0" stop-color="rgb(100%,85.490196%,29.411765%)"/><stop offset="1" stop-color="rgb(97.647059%,77.647059%,0%)"/></linearGradient></defs><g fill-rule="evenodd"><path d="M208.262 32c-35.152 0-63.648 27.594-63.648 61.629v42.668h110.164v11.852H95.648C60.496 148.148 32 175.742 32 209.777v92.445c0 34.035 28.496 61.629 63.648 61.629h36.723v-52.148c0-34.035 28.496-61.629 63.652-61.629h117.508c29.742 0 53.855-23.348 53.855-52.148V93.629C367.386 59.594 338.89 32 303.738 32zm-14.687 75.852c12.168 0 22.031-9.551 22.031-21.332s-9.863-21.336-22.031-21.336-22.035 9.555-22.035 21.336 9.867 21.332 22.035 21.332zm0 0" fill="url(#A)"/><path d="M303.734 480c35.152 0 63.652-27.594 63.652-61.629v-42.668H257.223v-11.852h159.125c35.152 0 63.648-27.594 63.648-61.629v-92.445c0-34.035-28.496-61.629-63.648-61.629h-36.723v52.148c0 34.039-28.496 61.629-63.648 61.629H198.469c-29.746 0-53.859 23.348-53.859 52.148V418.37c0 34.035 28.496 61.629 63.648 61.629zm14.691-75.852c-12.172 0-22.035 9.551-22.035 21.332s9.863 21.332 22.035 21.332 22.031-9.547 22.031-21.332-9.863-21.332-22.031-21.332zm0 0" fill="url(#B)"/></g></svg>